<svg xmlns="http://www.w3.org/2000/svg" version="1.1" xmlns:xlink="http://www.w3.org/1999/xlink" viewBox="0 0 18.721584488258436 4.145877534959615"><g transform="matrix(0.6850992260457855,0,0,0.6850992260457855,3.600490744739986,1.707095780771358)"><rect width="20.627206323526607" height="20.627206323526607" x="-1.905621835268171" y="-9.779603161763303" fill="#ffffff"></rect><g transform="matrix(1,0,0,1,0,0)" clip-path="url(#SvgjsClipPath4173)"><g clip-path="url(#afbb5afac-6027-4191-8f79-29e328083c1ec660715b-8e9d-4519-a58c-409f162afdbf)"><path d=" M 15.101628246368975 -0.5654000482309255 C 15.101628246368975 -0.5654000482309255 14.416441835448346 -0.6110418075198764 14.021906627852445 -0.4740231927219626 C 14.021906627852445 -0.4740231927219626 13.677213341443252 -0.30797679236400033 13.390668963085217 0.02010252031629045 L 12.468780094993258 0.1779352707408628 C 12.468780094993258 0.1779352707408628 12.252891773448589 0.20285623133421637 12.227970812855236 0.5433493558456535 C 12.227970812855236 0.5433493558456535 12.103366009888468 0.5890844520656655 12.15731475604187 0.7468238655591763 L 13.776897183816667 1.0292614189505165 L 14.765241946824233 0.9835263227305047 C 14.765241946824233 0.9835263227305047 15.217926062471292 1.5981500137688307 15.425507397151511 1.5981500137688307 C 15.63318206876279 1.5981500137688307 15.67882382805174 1.282577849850747 15.707944950542851 1.0375684058149681 L 16.505229015668043 1.1704801956461868 C 16.505229015668043 1.1704801956461868 16.5094291775658 1.3748880746703227 16.617420006803663 1.3748880746703227 C 16.725317499110467 1.3748880746703227 16.725317499110467 1.0209544320860655 16.692089551652664 0.8340938961014448 L 16.753131904566718 0.46447964909889805 C 16.753131904566718 0.46447964909889805 16.70039653851711 0.20285623133421649 16.49692202880359 0.15721447204526584 C 16.49692202880359 0.15721447204526584 16.30175450595452 -0.45740921899306 15.666410016220595 -0.5114513020775232 Z" fill="#ffffff" transform="matrix(1,0,0,1,0,0)" fill-rule="nonzero"></path></g><g clip-path="url(#afbb5afac-6027-4191-8f79-29e328083c1ec660715b-8e9d-4519-a58c-409f162afdbf)"><path d=" M 13.585743149003228 0.564816849989741 C 13.585274652732013 0.5529378644706437 13.585056818093594 0.5410503170597885 13.5850897904858 0.529162142324346 C 13.5850897904858 0.4293849630198685 13.596290222213149 0.2778991239074611 13.600583721041968 0.22301700844344663 L 13.570715903102368 0.22283033458132417 C 13.568090156596197 0.2560412920123013 13.565694451244685 0.2892700363683348 13.563528959410668 0.3225141769544929 C 13.558723336120565 0.39130149953597004 13.555890952150424 0.4602124677765682 13.555035298684079 0.5291621423243509 C 13.555001236623037 0.5422030544644427 13.555281328661971 0.5552428949437211 13.555875331063628 0.5682703164390204 C 13.566049056549305 0.5672436101973337 13.575942771241797 0.5660302300935374 13.585743149003228 0.564816849989741 M 13.509393539395127 0.5720971306125184 C 13.508740180877698 0.5593099710571274 13.508460170084513 0.5448427467426338 13.508460170084513 0.529162142324344 C 13.508460170084513 0.42910495222668477 13.519753938742925 0.27715242845897115 13.524047437571742 0.2226436607192016 L 13.494086282701081 0.22255032378814044 C 13.49144895418832 0.25585379183657286 13.489053243261214 0.28917595291361176 13.486899339009373 0.32251417695465157 C 13.482093715719278 0.3913014995359698 13.479261331749138 0.460212467776568 13.478405678282792 0.5291621423243507 C 13.478405678282792 0.5461494637774911 13.478779026007036 0.5612700466094136 13.479525721455527 0.5737771953716211 C 13.489699446941202 0.5733105107163148 13.499686498564756 0.5727504891299473 13.509393539395127 0.5720971306125184 M 13.35641430938574 0.5758306078549684 C 13.35554263775968 0.5602901119656041 13.355137995235564 0.5447269379611879 13.355200929281942 0.52916214232434 C 13.355294266213004 0.4716665927906143 13.358934406524392 0.39699704794161517 13.362947894560026 0.33352793481996557 L 13.332986739689366 0.33352793481996557 C 13.328510811486934 0.3986513677819745 13.325896310887517 0.4638893827388584 13.325146437480221 0.5291621423243442 C 13.325146437480221 0.5468961592259811 13.325613122135527 0.5625767636442711 13.326359817584017 0.5753639231996623 C 13.316372765960462 0.5751772493375398 13.336906890793937 0.5756439339928459 13.35641430938574 0.5758306078549684 M 13.433043929787024 0.5754572601307235 C 13.432173149009113 0.5600413029895173 13.431768504235237 0.5446025485400152 13.431830549683228 0.5291621423243407 C 13.431923886614289 0.42901161529562337 13.443124318341638 0.2767790807347261 13.447417817170457 0.22236364992601787 L 13.432017223545351 0.22236364992601787 C 13.426420355174312 0.22621463243604722 13.421229074510089 0.23062409372312664 13.416523292989183 0.235524157205654 C 13.414250280164856 0.2645069723864404 13.412165711320766 0.29350425839677674 13.410269718608083 0.32251417695468787 C 13.405464095317994 0.39130149953596827 13.402631711347851 0.4602124677765633 13.401776057881506 0.5291621423243436 C 13.401776057881506 0.5471761700191651 13.402242742536812 0.5630434482995774 13.403082774916363 0.5759239447860298 L 13.433043929787024 0.5754572601307235 M 13.202875057789985 0.5701370550602323 C 13.202221699272556 0.5578165801601476 13.202035025410433 0.5440027143630823 13.202035025410433 0.529162142324344 C 13.202035025410433 0.42929162608880733 13.213235457137783 0.27752577618321606 13.2175289559666 0.22283033458132406 C 13.20754135979458 0.22290637580694805 13.197554190855854 0.22303082651023431 13.187567801095916 0.22320368230556942 C 13.184987943138632 0.25629144834223816 13.182623357519812 0.28939564700568055 13.180474194335288 0.3225141769546861 C 13.175622028762394 0.39129890991711724 13.172789589263907 0.460211229144033 13.17198053360871 0.5291621423243424 C 13.17198053360871 0.5435360297077763 13.172167207470833 0.5566965369874124 13.1727272290572 0.5679903056458235 L 13.202875057789985 0.5701370550602323 M 13.125965426595515 0.5636968068170061 C 13.12559207887127 0.5530563966760236 13.125405405009147 0.5415759541554901 13.125405405009147 0.529162142324344 C 13.125405405009147 0.4298516476751746 13.136512499805436 0.2792058409423186 13.140805998634253 0.22376370389193667 L 13.110844843763592 0.22432372547830415 C 13.108291277602483 0.25703780923242003 13.105957801532387 0.28976870024227774 13.103844573933998 0.3225141769547496 C 13.098992408361108 0.3912989099171188 13.09615996886262 0.46021122914403434 13.095350913207426 0.529162142324344 C 13.095350913207424 0.5403625740516937 13.095444250138486 0.5507229733994925 13.09581759786273 0.5601500034366786 C 13.105617975624163 0.5614567204715362 13.115605027247716 0.5625767636442711 13.125965426595515 0.5636968068170061 M 13.279691352053392 0.5739638692337434 C 13.278938535791353 0.5590421938249472 13.278596170992984 0.5441026389870702 13.278664645811718 0.5291621423243416 C 13.278664645811718 0.44450554585179103 13.286691621882985 0.32251417695473816 13.291731816160294 0.2540048695557814 C 13.289025045159518 0.24299111169055398 13.285198230986007 0.23216402768744893 13.279784688984453 0.22245698685707904 L 13.264290758428286 0.22255032378814044 C 13.261659011659814 0.25585636218044816 13.25923220552169 0.2891782772308499 13.257010477805512 0.32251417695469353 C 13.252204854515423 0.3913014995359583 13.24937247054528 0.4602124677765531 13.248516817078935 0.5291621423243333 C 13.248516817078935 0.545682779122185 13.24889016480318 0.5603366772988012 13.24963686025167 0.5726571521988859 L 13.279691352053392 0.5739638692337434 M 13.98261177987566 0.237390895826879 C 13.973464760631657 0.23627085265414405 13.963571045939165 0.23524414641247027 13.952930635798182 0.2342174401707965 C 13.950597920905567 0.2636315818167163 13.94851332197591 0.29306487416682214 13.946677061417075 0.3225141769547838 C 13.944810322795854 0.3507952670662967 13.942943584174628 0.38187646510969264 13.94145019327765 0.4128643262220275 C 13.952183940349693 0.4032506223227187 13.962637676628553 0.39326357069916507 13.972998075976351 0.38280983442030525 C 13.976078194701373 0.3255009587486982 13.979998345805944 0.2712722018021124 13.98261177987566 0.237390895826879 M 14.028626886888855 0.2456045457602689 C 14.027133495991876 0.2659519967316213 14.02517342043959 0.2926463590151386 14.023213344887303 0.32251417695473816 L 14.022839997163057 0.3296077837153931 C 14.034880461269958 0.3158872548493895 14.047014262307922 0.3017000413280797 14.059428074139069 0.28685946928934103 C 14.075015341626296 0.26837875693921376 14.065868322382293 0.25512491272851634 14.028626886888855 0.2456045457602689 M 13.906448844129681 0.23076397372153024 C 13.896928477161433 0.2301106152041016 13.887128099400002 0.229550593617734 13.876674363121142 0.2290839089624278 C 13.874287042044575 0.2602144249677708 13.872078031781156 0.29135835839992275 13.870047441015789 0.322514176954816 C 13.866680119543105 0.3728079063624904 13.864159665340848 0.42315475697052185 13.862487149599833 0.473533331411808 C 13.873034222809753 0.46681307237542957 13.883207948295428 0.4597194656147745 13.893194999918983 0.4523458480609359 C 13.896275118644004 0.3686226208989952 13.902995377680414 0.27621905914835854 13.906448844129681 0.23076397372153024 M 13.73834903128837 0.5317755763940588 L 13.73834903128837 0.529162142324344 C 13.73834903128837 0.43059834312366463 13.749269452222537 0.2814459272877886 13.753656287982416 0.2250704209267942 L 13.723788470042816 0.2245103993404266 C 13.721236840169365 0.2571623727001797 13.718903364826165 0.2898310275049639 13.716788200213221 0.32251417695475126 C 13.711936034640331 0.39129890991711835 13.709103595141844 0.4602112291440339 13.708294539486648 0.5291621423243436 L 13.70838787641771 0.5409225956380612 C 13.718654938834447 0.5380291507751624 13.728641990458001 0.5350423689812025 13.73834903128837 0.5317755763940588 M 13.83019257145264 0.22712383341014164 L 13.80032475351304 0.22619046409952914 C 13.797761243676714 0.2582791049057481 13.795458856506261 0.2903880719315455 13.79341782061451 0.3225141769547153 C 13.78899830832149 0.3863064684538089 13.78619729995042 0.4502005816294543 13.785017496818995 0.5141348964234849 C 13.795377896166794 0.509748060663604 13.805458284721409 0.505174551041603 13.81525866248284 0.5003210306264179 C 13.816938727241942 0.4047440132196988 13.826085746485944 0.2795791886665636 13.83019257145264 0.22712383341014164 M 13.66199942168027 0.5521230273654112 C 13.661812747818146 0.5448427467426338 13.661719410887084 0.5371891183956112 13.661719410887084 0.529162142324344 C 13.661719410887084 0.4298516476751746 13.672826505683373 0.2792058409423186 13.677213341443252 0.22376370389193667 L 13.647252186572592 0.22348369309875282 C 13.644680366089334 0.2564786793048044 13.642315783873718 0.2894894915517532 13.64015857981193 0.322514176954821 C 13.635306414239047 0.3912989099171186 13.63247397474056 0.4602112291440341 13.631664919085363 0.5291621423243438 C 13.631664919085363 0.5394292047410814 13.631758256016424 0.5490429086403898 13.632038266809607 0.5578165801601476 C 13.642305329226346 0.5560431784699835 13.652292380849898 0.5541764398487588 13.66199942168027 0.5521230273654112 M 12.820286977369923 0.45990613947689707 C 12.822993748370699 0.37907635717785526 12.829433996613925 0.2884461971173823 12.833167473856376 0.23907096058598143 C 12.823059479431688 0.24026450101705732 12.812976978494545 0.24166484836943847 12.802926308192527 0.24327112248373817 C 12.798017787970624 0.30461298411162796 12.794221462666822 0.36603877222396586 12.791539202603062 0.4275182243986051 C 12.800126200260694 0.4390920038502384 12.80955323029788 0.4499190878533432 12.820286977369923 0.45990613947689707 M 15.449121640710008 0.643033198219068 C 15.349157787543408 0.643033198219068 15.268141331382244 0.8275603109271574 15.268141331382244 1.055115748854483 C 15.268141331382244 1.2827645237128698 15.349157787543408 1.4671982994898978 15.449121640710008 1.4671982994898978 C 15.549178830807666 1.4671982994898978 15.630195286968831 1.2827645237128695 15.630195286968831 1.055115748854483 C 15.630195286968831 0.8275603109271574 15.549178830807666 0.643033198219068 15.449121640710008 0.643033198219068 M 16.61555326818244 0.7426237036614205 C 16.591285666106515 0.7426237036614205 16.57159157365259 0.8691885821804746 16.57159157365259 1.0254346047770055 C 16.57159157365259 1.1815872904424753 16.591285666106515 1.3081521689615294 16.61555326818244 1.3081521689615294 C 16.63982087025836 1.3081521689615294 16.659514962712286 1.1815872904424753 16.659514962712286 1.0254346047770055 C 16.659514962712286 0.8691885821804746 16.63982087025836 0.7426237036614205 16.61555326818244 0.7426237036614205 M 16.742304820563614 0.34127490009804917 C 16.68536929261625 0.19128245188262183 16.535376844400826 0.13444026086632122 16.535376844400826 0.13444026086632122 C 16.535376844400826 0.13444026086632122 16.43709305599333 -0.03627298604470364 16.349169666933633 -0.16563797249559503 C 16.261246277873937 -0.2949096220154251 16.075039100406745 -0.3984202785623504 15.909552721635148 -0.4759832682742484 C 15.584460190748818 -0.6283091397662071 14.269809516751122 -0.6156153171418773 13.974958151528636 -0.4811167994826171 C 13.684120274341785 -0.34848502044458207 13.378255151254072 -0.014525481107432459 13.36994816438962 -0.005471798794491445 C 13.387682181291257 -0.03981978942503106 13.406909589089874 -0.08994172140492196 13.390482289223096 -0.122982995000604 C 13.371068207562356 -0.16171782139102248 13.324493078962792 -0.17338493777367858 13.215848891207498 -0.13455677445219888 C 13.127272143630371 -0.10291555482243542 13.12568541580233 -0.04289990815005229 13.136605836736496 0.015529010694289691 C 12.558943570398426 0.07666470053940799 12.363029352100863 0.17784193380980207 12.284813003871538 0.28825952325525994 C 12.196889614811841 0.4123976415667212 12.200716428985352 0.5482028762608386 12.200716428985352 0.5482028762608386 C 12.040363581422126 0.5689236749564361 12.10635279168243 0.9167904170217118 12.160674885560075 1.0913304781062476 C 12.182889075152653 1.1629199042302258 12.361069276548578 1.220695464557139 12.361069276548578 1.220695464557139 C 12.402510873939772 1.3499671140769693 12.482687297721386 1.4818521976665144 12.539529488737687 1.5180669269182794 C 12.596465016685048 1.5542816561700439 12.84987478451634 1.5853628542134397 12.999960569662829 1.5542816561700439 C 13.149953017878255 1.523293795057709 13.23012944165987 1.3396067147291706 13.23012944165987 1.3396067147291706 L 14.29053031544672 1.3603275134247679 C 14.29053031544672 1.3603275134247679 14.321518176559056 1.4275301037888675 14.34737250646302 1.4482509024844645 C 14.373226836366987 1.468971701180062 14.536193117999929 1.4870790658059445 14.618982975851257 1.4559978677625487 C 14.664624735140208 1.4389172093783398 14.704292930841238 1.3448335828686004 14.704292930841238 1.3448335828686004 L 14.875006177752264 1.3448335828686004 C 14.875006177752264 1.3448335828686004 14.898247073586514 1.4973461282226814 14.975903400229473 1.575002454865641 C 15.074000514774847 1.6730995694110138 15.319849991190177 1.6603124098556228 15.469842439405603 1.6395916111600253 C 15.619834887621032 1.6189641493954892 15.70262474547236 1.2516833256694737 15.70262474547236 1.2516833256694737 L 16.25611274666557 1.1844807353053743 C 16.25611274666557 1.1844807353053743 16.26899324315202 1.4250100066502134 16.362143500351145 1.4792387635967994 C 16.40423845625977 1.5038797133969688 16.57159157365259 1.5051864304318265 16.623300233460522 1.4741052323884307 C 16.720743989488465 1.4156763135440886 16.726810890007446 1.0396218182983157 16.726810890007446 1.0396218182983157 C 16.881936869431243 0.7706247829797954 16.799240348510978 0.4912673483134766 16.742304820563614 0.3412749000980493 M 16.227644982691885 -0.243200962207493 C 16.333769073308527 -0.13987697952269007 16.400878326741562 0.10849259403129385 16.400878326741562 0.10849259403129385 C 16.356356610625348 0.09579877140696402 16.275526828326306 0.08562504592128772 16.189563514818897 0.07778474371214295 C 16.183589951230978 0.05753062967185196 16.176963029125627 0.03736985256262204 16.16968274850285 0.017395749315514575 C 16.205150782306127 0.00003508013812225652 16.22661827645021 -0.024605869662047475 16.219898017413804 -0.05960721881001596 C 16.20711085785841 -0.1260631137256253 16.152882100911825 -0.1614378105978388 16.080172631615113 -0.17646505649869987 C 16.031646554555675 -0.2636617698735268 15.976870103409144 -0.3472301711386484 15.91627298067156 -0.4265146948117852 C 16.00326300042064 -0.4026204404601067 16.11965415345402 -0.3482983465824596 16.227644982691885 -0.243200962207493 M 15.782801169253972 -0.43463500781411496 C 15.790548134532056 -0.44238197309219884 15.821069310989085 -0.4449020702308524 15.865497690174239 -0.43771512653913613 C 15.897418920597186 -0.39085998714638914 15.95743456726957 -0.29817641460256866 16.01446343214799 -0.18467870643208972 C 15.976440708647491 -0.1864411960434113 15.938338579575916 -0.18525538039663014 15.900499039322206 -0.18113190305176224 C 15.838616654028598 -0.17478499173959727 15.842256794339988 -0.049246819462217095 15.842256794339988 -0.049246819462217095 C 15.77505420397589 -0.24320096220749282 15.75946693648866 -0.4113007750488026 15.782801169253972 -0.43463500781411496 M 15.859804137379502 0.056970608085484487 C 15.858278926272902 0.056927142890772275 15.85675430767463 0.05686491356023049 15.855230627757503 0.05678393422336203 L 15.859804137379502 0.056970608085484487 M 15.206072272226514 0.005075274415429987 L 15.46209547412752 0.019075814074617448 C 15.46209547412752 0.019075814074617448 15.049546238836799 0.08077152550610311 14.913834341073741 0.14862747438763124 L 14.49223142347008 0.14862747438763124 C 14.49223142347008 0.14862747438763124 14.849151847848297 0.001248460241918825 15.206072272226514 0.005075274415429987 M 15.081934153915054 0.5327089457046714 C 14.849991880227847 0.5090947021461754 14.047387610032168 0.5146015810787892 14.047387610032168 0.5146015810787892 C 14.047387610032168 0.5146015810787892 14.192059853177103 0.343048301788213 14.233594787499358 0.31290047305542956 C 14.29053031544672 0.2714588756642349 14.435295895522719 0.26371191038615127 14.991397330785642 0.26884544159451995 C 15.08706768512342 0.26977881090513234 15.1258958484449 0.28956624029011735 15.15949714362695 0.37496953221116025 C 15.193098438809 0.460279487201142 15.234446699269133 0.5482028762608386 15.081934153915052 0.5327089457046714 M 14.391334200992869 0.1059724968926401 C 14.391334200992869 0.1059724968926401 13.650332305297614 0.10205234578806766 13.537861303368807 0.10205234578806766 C 13.537861303368807 0.10205234578806766 13.599930362524539 0.04100999287401075 13.78613753999173 0.01515566297004467 C 13.78613753999173 0.01515566297004467 14.277556482029206 0.0009684494487348649 14.657717802241676 0.019075814074617115 C 14.657717802241676 0.019075814074617115 14.463763659496399 0.06555760574311931 14.391334200992869 0.1059724968926401 M 14.044774175962452 -0.4656228689264496 C 14.04626756685943 -0.4662762274438784 14.198406764489269 -0.5164914963548304 14.387507386819358 -0.5263852110473228 C 14.387507386819358 -0.5263852110473228 14.13139084798729 -0.4759832682742484 14.0887358704923 -0.3324310683020471 C 14.028253539164611 -0.12895655858852395 14.426242213209777 -0.029832737801477327 14.426242213209777 -0.029832737801477327 C 14.426242213209777 -0.029832737801477327 13.813298586930554 -0.049246819462217206 13.439577514961313 0.0024618403457148386 C 13.439577514961313 0.0024618403457148386 13.749922810739966 -0.3311243512671897 14.044774175962452 -0.4656228689264496 M 13.362014525249414 0.1395737920746899 C 14.013786314850117 0.1395737920746899 14.241341752777442 0.14713408349065116 14.18440622483008 0.22488374706467174 C 13.987931984946151 0.49388078238319166 13.84297973100803 0.6249258335931855 13.305078997302052 0.6051384042082006 C 12.813660055264574 0.5870310395823184 12.756817864248275 0.5663102408867209 12.666281041118863 0.26371191038615127 C 12.639026657248978 0.172615065670372 12.861541900898995 0.1395737920746899 13.362014525249414 0.1395737920746899 M 12.339135097749184 0.280512557977176 L 12.602905264928275 0.29217967435983216 C 12.602905264928275 0.29217967435983216 12.664974324084005 0.443478839610117 12.719296417961653 0.5327089457046714 L 12.26931907331537 0.5132948640439317 C 12.26931907331537 0.5132948640439317 12.251211708689487 0.4046506762886376 12.339135097749184 0.280512557977176 M 15.19832530694843 0.6672074633639313 L 13.915502526442621 0.6672074633639313 C 13.915502526442621 0.6672074633639313 13.781004008783361 0.7861187135359629 13.31543939664985 0.7861187135359629 C 12.702495770370627 0.7861187135359629 12.643040145284612 0.6619805952245015 12.643040145284612 0.6619805952245015 L 12.164501699733586 0.6568470640161328 C 12.16246888722247 0.6425832943101955 12.16727633641579 0.6281955326956543 12.1774755331511 0.618018900694653 L 12.655920641771063 0.618018900694653 C 12.655920641771063 0.618018900694653 12.818886923404005 0.7240496543802322 13.266344170911633 0.7240496543802322 C 13.752536244809681 0.7240496543802322 13.910275658303192 0.6232457688340829 13.910275658303192 0.6232457688340829 L 15.229313168060765 0.6257658659727368 Z M 15.455655225884295 1.518066926918279 C 15.3320771291592 1.518066926918279 15.23192660213048 1.3107656030312442 15.23192660213048 1.055115748854483 C 15.23192660213048 0.7994658946777213 15.3320771291592 0.5921645707906871 15.455655225884295 0.5921645707906871 C 15.579139985678328 0.5921645707906871 15.679383849638109 0.7994658946777213 15.679383849638109 1.055115748854483 C 15.679383849638109 1.3107656030312442 15.579139985678326 1.518066926918279 15.455655225884295 1.518066926918279 M 16.62078013632187 1.3422201487988856 C 16.579338538930674 1.3422201487988856 16.545737243748626 1.2003480135857867 16.545737243748626 1.0254346047770055 C 16.545737243748626 0.8504278590371634 16.579338538930674 0.7085557238240645 16.62078013632187 0.7085557238240645 C 16.662221733713064 0.7085557238240645 16.69572969196405 0.8504278590371634 16.69572969196405 1.0254346047770055 C 16.69572969196405 1.2003480135857867 16.66222173371306 1.3422201487988856 16.62078013632187 1.3422201487988856 M 16.659514962712286 0.48100028589673904 C 16.659514962712286 0.48100028589673904 16.618166702252154 0.4421721225752595 16.519882913844658 0.4473056537836284 C 16.194043687509836 0.20164285123042036 15.643169120386345 0.4551459559927731 15.643169120386345 0.4551459559927731 C 15.643169120386345 0.4551459559927731 15.612087922342948 0.3982104280454112 15.503443734587654 0.4008238621151261 C 15.394892883763422 0.4033439592537801 15.30435606063401 0.5197351122871579 15.30435606063401 0.5197351122871579 C 15.30435606063401 0.5197351122871579 15.268141331382244 0.5274820775652416 15.237060133338849 0.5146015810787892 C 15.237060133338849 0.5146015810787892 15.354291318751777 0.2447645133807177 15.578486627160899 0.2750990159756237 C 15.873337992383384 0.3149538855387771 15.873337992383384 0.11633289624043885 15.873337992383384 0.11633289624043885 C 16.214671149274373 0.2585783791777825 16.370543824146658 0.15394767945812238 16.499162115149062 0.18614892067425326 C 16.623300233460522 0.21713678178658802 16.70609009131185 0.3050601708462847 16.731944421215815 0.4551459559927733 C 16.731944421215815 0.4551459559927733 16.680235761407882 0.43442515729717623 16.659514962712286 0.48100028589673927 M 13.049055795401046 0.5534297444002687 C 13.048869121538923 0.545682779122185 13.048775784607862 0.5376558030509175 13.048775784607862 0.529162142324344 C 13.048775784607862 0.4307850169857874 13.059696205542028 0.28209928580521737 13.064083041301906 0.2254437686510391 C 13.053815978885169 0.22563044251316156 13.043828927261615 0.22600379023740658 13.034121886431246 0.22628380103059031 C 13.031561124731724 0.2583415192763099 13.029258739011746 0.2904193527532698 13.027214953532717 0.322514176954675 C 13.022362787959823 0.3912989099171188 13.019530348461336 0.46021122914403434 13.01872129280614 0.529162142324344 C 13.01872129280614 0.5356957274986314 13.01872129280614 0.5419493018797352 13.018907966668262 0.5479228654676551 C 13.028615007498631 0.5498829410199413 13.038602059122185 0.5516563427101049 13.049055795401046 0.5534297444002687 M 12.749164235901251 0.3476218114102142 C 12.7512176483846 0.313087146917552 12.75364440859219 0.27939251480444116 12.755511147213417 0.25419154341790384 C 12.734977022379942 0.26119181324749763 12.725923340067 0.2694988001119488 12.728350100274593 0.2792058409423186 C 12.733989161813009 0.3023863169610962 12.740938365458714 0.3252283181821831 12.749164235901251 0.3476218114102121 M 12.972146164206576 0.529162142324344 C 12.972146164206576 0.4322784078827673 12.982693237416497 0.2865794584961573 12.987266747038499 0.22805720272075414 C 12.977246032923725 0.22843199699357397 12.967227684650322 0.2288675773532869 12.957212255236831 0.2293639197556091 C 12.955625527408735 0.2503647292443927 12.953105430270082 0.2836860136332585 12.950585333131427 0.32251417695473816 C 12.945772843684706 0.3909272488126321 12.942940438789618 0.4594652222080571 12.942091672404853 0.5280420991516115 C 12.951612039373101 0.5312155548076913 12.961692427927716 0.5341089996705901 12.972239501137636 0.5370024445334889 L 12.972146164206576 0.529162142324344 M 12.910357115844029 0.23216402768744893 C 12.900305305419627 0.23287621648464185 12.890255969939467 0.233622916334561 12.880209287111436 0.23440411403290518 C 12.877973154839983 0.26376317806010274 12.875888602269022 0.29313359040319653 12.873955712730135 0.32251417695482487 C 12.870120653929913 0.3796396163959126 12.867413355810179 0.4368351789714642 12.865835399727812 0.49406745624531734 C 12.875169092833938 0.4995743351779278 12.885062807526431 0.5048012033173579 12.895703217667412 0.509748060663604 C 12.896823260840147 0.416131118809171 12.905876943153089 0.28919289256587233 12.910357115844029 0.23216402768744893" fill="#2b2c30" transform="matrix(1,0,0,1,0,0)" fill-rule="nonzero"></path></g></g><g><path d=" M 1.0635000000000001 0.8745 Q 0.9105 1.0185 0.7005 1.0185 Q 0.5835 1.0185 0.4935 0.9780000000000001 Q 0.4035 0.9375 0.3435 0.8700000000000001 Q 0.28350000000000003 0.8025 0.25275000000000003 0.7140000000000001 Q 0.222 0.6255000000000001 0.222 0.5295000000000001 Q 0.222 0.4275000000000001 0.25425000000000003 0.34275 Q 0.28650000000000003 0.258 0.34500000000000003 0.1965 Q 0.4035 0.135 0.48375 0.10050000000000003 Q 0.5640000000000001 0.06600000000000006 0.6585 0.06600000000000006 Q 0.723 0.06600000000000006 0.77625 0.08100000000000007 Q 0.8295 0.09600000000000009 0.87075 0.12 Q 0.912 0.14400000000000002 0.93825 0.17475000000000007 Q 0.9645 0.20550000000000002 0.975 0.237 L 1.086 0.237 Q 1.0635000000000001 0.18600000000000005 1.02825 0.14250000000000007 Q 0.993 0.09900000000000009 0.9405 0.06750000000000012 Q 0.888 0.03600000000000003 0.8175 0.018000000000000016 Q 0.747 0 0.657 0 Q 0.5265 0 0.41925 0.03750000000000009 Q 0.312 0.07500000000000007 0.23550000000000001 0.14475000000000005 Q 0.159 0.21450000000000002 0.117 0.3127500000000001 Q 0.075 0.41100000000000003 0.075 0.5325000000000001 Q 0.075 0.6375000000000001 0.10875 0.7372500000000001 Q 0.14250000000000002 0.8370000000000001 0.213 0.91425 Q 0.28350000000000003 0.9915 0.393 1.03875 Q 0.5025000000000001 1.086 0.654 1.086 Q 0.75 1.086 0.82575 1.068 Q 0.9015 1.05 0.95775 1.0237500000000002 Q 1.014 0.9975 1.0515 0.9675 Q 1.089 0.9375 1.1085 0.915 L 1.0635000000000001 0.8745 M 1.3169582519531249 0.018000000000000016 L 1.3169582519531249 1.068 L 1.453458251953125 1.068 L 1.453458251953125 0.6045 L 1.519458251953125 0.6045 Q 1.561458251953125 0.6045 1.589208251953125 0.6120000000000001 Q 1.616958251953125 0.6195 1.639458251953125 0.6375000000000001 Q 1.6619582519531249 0.6555 1.681458251953125 0.684 Q 1.700958251953125 0.7125000000000001 1.727958251953125 0.7545000000000001 L 1.846458251953125 0.93 Q 1.868958251953125 0.9645 1.890708251953125 0.9930000000000001 Q 1.912458251953125 1.0215 1.937958251953125 1.04175 Q 1.963458251953125 1.062 1.995708251953125 1.074 Q 2.027958251953125 1.086 2.072958251953125 1.086 Q 2.105958251953125 1.086 2.126958251953125 1.083 Q 2.147958251953125 1.08 2.168958251953125 1.068 L 2.168958251953125 1.0125 Q 2.1614582519531247 1.014 2.1539582519531253 1.01475 Q 2.146458251953125 1.0155 2.1389582519531247 1.0155 Q 2.107458251953125 1.0155 2.083458251953125 1.0065 Q 2.059458251953125 0.9975 2.038458251953125 0.9802500000000001 Q 2.017458251953125 0.9630000000000001 1.997958251953125 0.93825 Q 1.9784582519531249 0.9135000000000001 1.957458251953125 0.8820000000000001 Q 1.894458251953125 0.7905 1.8599582519531248 0.7357500000000001 Q 1.8254582519531248 0.681 1.805208251953125 0.651 Q 1.784958251953125 0.621 1.772208251953125 0.6075 Q 1.759458251953125 0.5940000000000001 1.741458251953125 0.5850000000000001 L 1.726458251953125 0.5775000000000001 L 1.726458251953125 0.5715000000000001 Q 1.798458251953125 0.5670000000000001 1.8502082519531249 0.54 Q 1.901958251953125 0.513 1.934958251953125 0.47250000000000003 Q 1.967958251953125 0.43200000000000005 1.982958251953125 0.38475000000000004 Q 1.997958251953125 0.3375 1.997958251953125 0.2925000000000001 Q 1.997958251953125 0.252 1.982208251953125 0.20400000000000007 Q 1.9664582519531248 0.15600000000000003 1.928208251953125 0.11475000000000002 Q 1.889958251953125 0.07350000000000001 1.823958251953125 0.04574999999999996 Q 1.757958251953125 0.018000000000000016 1.657458251953125 0.018000000000000016 L 1.3169582519531249 0.018000000000000016 M 1.453458251953125 0.08400000000000007 L 1.604958251953125 0.08400000000000007 Q 1.6619582519531249 0.08400000000000007 1.7077082519531248 0.10050000000000003 Q 1.753458251953125 0.11699999999999999 1.786458251953125 0.14625 Q 1.819458251953125 0.1755 1.8367082519531248 0.21600000000000008 Q 1.853958251953125 0.25650000000000006 1.853958251953125 0.3045 Q 1.853958251953125 0.3450000000000001 1.8382082519531249 0.3862500000000001 Q 1.822458251953125 0.4275000000000001 1.7909582519531249 0.46125000000000005 Q 1.759458251953125 0.495 1.713708251953125 0.516 Q 1.667958251953125 0.537 1.607958251953125 0.537 L 1.453458251953125 0.537 L 1.453458251953125 0.08400000000000007 M 2.332484619140625 0.018000000000000016 L 2.332484619140625 0.663 Q 2.332484619140625 0.7245 2.344484619140625 0.7987500000000001 Q 2.356484619140625 0.873 2.401484619140625 0.9367500000000001 Q 2.446484619140625 1.0005000000000002 2.5349846191406247 1.04325 Q 2.623484619140625 1.086 2.776484619140625 1.086 Q 2.872484619140625 1.086 2.946734619140625 1.056 Q 3.020984619140625 1.026 3.071234619140625 0.9735 Q 3.1214846191406247 0.921 3.1469846191406248 0.8512500000000001 Q 3.172484619140625 0.7815000000000001 3.172484619140625 0.7020000000000001 L 3.172484619140625 0.018000000000000016 L 3.106484619140625 0.018000000000000016 L 3.106484619140625 0.6525000000000001 Q 3.106484619140625 0.6855 3.104984619140625 0.7192500000000001 Q 3.103484619140625 0.7530000000000001 3.095984619140625 0.7867500000000001 Q 3.0884846191406248 0.8205 3.072734619140625 0.8535 Q 3.056984619140625 0.8865000000000001 3.0269846191406247 0.9195000000000001 Q 2.972984619140625 0.9780000000000001 2.905484619140625 0.9990000000000001 Q 2.837984619140625 1.02 2.764484619140625 1.02 Q 2.7014846191406248 1.02 2.6527346191406247 1.0005000000000002 Q 2.603984619140625 0.9810000000000001 2.5604846191406248 0.9420000000000001 Q 2.5259846191406248 0.912 2.507984619140625 0.8820000000000001 Q 2.4899846191406247 0.8520000000000001 2.480984619140625 0.8227500000000001 Q 2.471984619140625 0.7935000000000001 2.470484619140625 0.7635000000000001 Q 2.468984619140625 0.7335 2.468984619140625 0.7035 L 2.468984619140625 0.018000000000000016 L 2.332484619140625 0.018000000000000016 M 3.373440673828125 0.018000000000000016 L 3.373440673828125 0.10050000000000003 L 4.0079406738281245 0.10050000000000003 L 3.3359406738281248 1.068 L 4.244940673828125 1.068 L 4.244940673828125 0.9855 L 3.553440673828125 0.9855 L 4.2194406738281245 0.018000000000000016 L 3.373440673828125 0.018000000000000016 M 4.528464111328125 0.018000000000000016 L 4.528464111328125 1.068 L 4.664964111328125 1.068 L 4.664964111328125 0.018000000000000016 L 4.528464111328125 0.018000000000000016 M 5.9294802246093745 0.018000000000000016 L 5.9294802246093745 0.8205 L 5.923480224609374 0.8205 L 5.090980224609375 0 L 5.083480224609374 0 L 5.083480224609374 1.068 L 5.152480224609374 1.068 L 5.152480224609374 0.26550000000000007 L 5.158480224609375 0.26550000000000007 L 5.990980224609375 1.086 L 5.9984802246093745 1.086 L 5.9984802246093745 0.018000000000000016 L 5.9294802246093745 0.018000000000000016 M 7.312443603515625 0.6000000000000001 L 7.0154436035156245 0.6000000000000001 L 7.0154436035156245 0.6615 L 7.183443603515625 0.6615 L 7.183443603515625 0.933 Q 7.115943603515625 0.9765 7.045443603515625 0.9975 Q 6.974943603515625 1.0185 6.884943603515625 1.0185 Q 6.766443603515625 1.0185 6.677943603515625 0.9825 Q 6.589443603515624 0.9465000000000001 6.530943603515625 0.88275 Q 6.472443603515624 0.8190000000000001 6.443193603515625 0.7312500000000001 Q 6.413943603515625 0.6435000000000001 6.413943603515625 0.5385000000000001 Q 6.413943603515625 0.43500000000000005 6.441693603515625 0.3480000000000001 Q 6.469443603515625 0.261 6.5249436035156245 0.19800000000000006 Q 6.580443603515625 0.135 6.660693603515624 0.10050000000000003 Q 6.740943603515625 0.06600000000000006 6.847443603515624 0.06600000000000006 Q 6.917943603515624 0.06600000000000006 6.979443603515625 0.08100000000000007 Q 7.0409436035156245 0.09600000000000009 7.088943603515625 0.12 Q 7.136943603515625 0.14400000000000002 7.167693603515625 0.17475000000000007 Q 7.198443603515624 0.20550000000000002 7.207443603515625 0.237 L 7.315443603515625 0.237 Q 7.301943603515625 0.20400000000000007 7.269693603515625 0.16275000000000006 Q 7.237443603515625 0.12150000000000005 7.1819436035156246 0.08550000000000002 Q 7.126443603515625 0.0495000000000001 7.044693603515625 0.02475000000000005 Q 6.962943603515624 0 6.8519436035156245 0 Q 6.724443603515625 0 6.6171936035156245 0.03600000000000003 Q 6.509943603515625 0.07200000000000006 6.4319436035156246 0.13950000000000007 Q 6.353943603515624 0.20700000000000007 6.310443603515624 0.30525 Q 6.2669436035156245 0.4035000000000001 6.2669436035156245 0.528 Q 6.2669436035156245 0.6345000000000001 6.300693603515625 0.7342500000000001 Q 6.334443603515624 0.8340000000000001 6.404193603515624 0.9127500000000001 Q 6.473943603515624 0.9915 6.581943603515625 1.03875 Q 6.689943603515625 1.086 6.839943603515625 1.086 Q 6.952443603515625 1.086 7.0394436035156245 1.06125 Q 7.126443603515625 1.0365 7.183443603515625 1.0065 L 7.183443603515625 1.068 L 7.312443603515625 1.068 L 7.312443603515625 0.6000000000000001 M 7.969468505859375 1.068 L 7.969468505859375 0.10050000000000003 L 8.371468505859374 0.10050000000000003 L 8.371468505859374 0.018000000000000016 L 7.430968505859375 0.018000000000000016 L 7.430968505859375 0.10050000000000003 L 7.832968505859375 0.10050000000000003 L 7.832968505859375 1.068 L 7.969468505859375 1.068 M 8.579956787109374 0.018000000000000016 L 8.579956787109374 1.068 L 9.257956787109375 1.068 L 9.257956787109375 0.9855 L 8.716456787109374 0.9855 L 8.716456787109374 0.546 L 9.181456787109374 0.546 L 9.181456787109374 0.4770000000000001 L 8.716456787109374 0.4770000000000001 L 8.716456787109374 0.10050000000000003 L 9.257956787109375 0.10050000000000003 L 9.257956787109375 0.018000000000000016 L 8.579956787109374 0.018000000000000016 M 10.364941406249999 0.8745 Q 10.21194140625 1.0185 10.00194140625 1.0185 Q 9.88494140625 1.0185 9.794941406249999 0.9780000000000001 Q 9.704941406249999 0.9375 9.64494140625 0.8700000000000001 Q 9.58494140625 0.8025 9.55419140625 0.7140000000000001 Q 9.523441406249999 0.6255000000000001 9.523441406249999 0.5295000000000001 Q 9.523441406249999 0.4275000000000001 9.55569140625 0.34275 Q 9.58794140625 0.258 9.64644140625 0.1965 Q 9.704941406249999 0.135 9.78519140625 0.10050000000000003 Q 9.86544140625 0.06600000000000006 9.95994140625 0.06600000000000006 Q 10.02444140625 0.06600000000000006 10.077691406249999 0.08100000000000007 Q 10.130941406249999 0.09600000000000009 10.172191406249999 0.12 Q 10.21344140625 0.14400000000000002 10.23969140625 0.17475000000000007 Q 10.265941406249999 0.20550000000000002 10.27644140625 0.237 L 10.38744140625 0.237 Q 10.364941406249999 0.18600000000000005 10.32969140625 0.14250000000000007 Q 10.29444140625 0.09900000000000009 10.24194140625 0.06750000000000012 Q 10.18944140625 0.03600000000000003 10.11894140625 0.018000000000000016 Q 10.04844140625 0 9.95844140625 0 Q 9.82794140625 0 9.72069140625 0.03750000000000009 Q 9.613441406249999 0.07500000000000007 9.53694140625 0.14475000000000005 Q 9.46044140625 0.21450000000000002 9.41844140625 0.3127500000000001 Q 9.376441406249999 0.41100000000000003 9.376441406249999 0.5325000000000001 Q 9.376441406249999 0.6375000000000001 9.41019140625 0.7372500000000001 Q 9.44394140625 0.8370000000000001 9.514441406249999 0.91425 Q 9.58494140625 0.9915 9.69444140625 1.03875 Q 9.803941406249999 1.086 9.95544140625 1.086 Q 10.05144140625 1.086 10.127191406249999 1.068 Q 10.20294140625 1.05 10.25919140625 1.0237500000000002 Q 10.315441406249999 0.9975 10.35294140625 0.9675 Q 10.39044140625 0.9375 10.409941406249999 0.915 L 10.364941406249999 0.8745 M 10.754899658203124 0.546 L 11.383399658203125 0.546 L 11.383399658203125 1.068 L 11.519899658203125 1.068 L 11.519899658203125 0.018000000000000016 L 11.383399658203125 0.018000000000000016 L 11.383399658203125 0.4770000000000001 L 10.754899658203124 0.4770000000000001 L 10.754899658203124 0.018000000000000016 L 10.618399658203124 0.018000000000000016 L 10.618399658203124 1.068 L 10.754899658203124 1.068 L 10.754899658203124 0.546" fill="#24253e" fill-rule="nonzero"></path></g><g></g></g><defs><clipPath id="SvgjsClipPath4173"><path d=" M 12.09990478515625 -0.5861278498457219 h 4.716057867834015 v 2.240255699691444 h -4.716057867834015 Z"></path></clipPath><clipPath id="afbb5afac-6027-4191-8f79-29e328083c1ec660715b-8e9d-4519-a58c-409f162afdbf"><path d=" M 12.099912543439203 1.65415217240558 L 16.815947659170938 1.65415217240558 L 16.815947659170938 -0.5861208469265223 L 12.099912543439203 -0.5861208469265223 Z"></path></clipPath></defs></svg>